 <svg version="1.0" xmlns="http://www.w3.org/2000/svg" width="700.000000pt" height="700.000000pt" viewBox="0 0 700.000000 700.000000" preserveAspectRatio="xMidYMid meet">
<metadata>
Created by potrace 1.12, written by Peter Selinger 2001-2015
</metadata>
<g transform="translate(0.000000,700.000000) scale(0.100000,-0.100000)" fill="#000000" stroke="none">
<path d="M6106 4320 c7 -40 6 -40 -40 -60 -42 -19 -46 -24 -46 -55 0 -33 -2
-34 -69 -55 -74 -23 -85 -31 -94 -71 -6 -23 -77 -97 -210 -215 -49 -45 -57
-57 -57 -87 0 -20 -5 -48 -12 -61 -9 -22 -8 -29 8 -47 30 -33 89 -59 134 -59
36 0 117 31 130 50 10 14 69 40 93 40 12 0 28 -5 34 -11 6 -6 47 -13 92 -16
44 -3 81 -9 81 -14 0 -4 -16 -25 -35 -46 -80 -86 -196 -243 -231 -313 -31 -62
-38 -88 -41 -150 -6 -105 -9 -117 -38 -124 -16 -4 -30 -19 -39 -41 -8 -19 -19
-35 -25 -35 -5 0 -23 -12 -40 -26 -31 -25 -31 -27 -31 -119 0 -85 2 -97 24
-122 l24 -28 447 0 447 0 19 24 c16 19 19 40 19 126 0 111 -5 122 -63 144 -15
6 -27 18 -27 27 0 9 -14 32 -31 51 -29 34 -30 38 -24 97 6 59 32 163 59 236
33 87 39 110 58 190 32 142 15 292 -49 428 -57 123 -161 217 -298 272 -33 13
-81 43 -107 67 -59 54 -70 55 -62 3z"></path>
<path d="M965 3391 c-6 -6 -8 -121 -5 -313 l5 -303 93 -3 92 -3 0 181 c1 99 1
240 1 313 l1 132 -89 3 c-49 1 -93 -2 -98 -7z"></path>
<path d="M2102 3388 c-9 -9 -12 -75 -12 -254 0 -269 -5 -248 78 -331 33 -33
36 -34 105 -31 l71 3 9 38 c10 43 -8 73 -47 79 -21 3 -21 7 -26 253 l-5 250
-80 3 c-54 2 -84 -1 -93 -10z"></path>
<path d="M2416 3393 c-3 -4 -6 -121 -6 -261 l0 -255 54 -54 54 -54 78 3 79 3
3 38 c4 45 -19 77 -53 77 -13 0 -26 8 -29 17 -4 9 -6 123 -5 253 l1 235 -85 2
c-47 1 -88 -1 -91 -4z"></path>
<path d="M407 3272 l-57 -58 0 -166 0 -166 62 -56 c73 -66 102 -72 116 -23 12
38 11 496 -1 515 -19 29 -62 13 -120 -46z"></path>
<path d="M578 3319 c-12 -7 -18 -22 -18 -48 0 -43 10 -51 68 -51 51 0 60 -9
64 -60 l3 -45 90 0 90 0 3 54 3 54 -57 54 -58 53 -85 0 c-47 0 -94 -5 -103
-11z"></path>
<path d="M1206 3189 c-39 -46 -31 -73 24 -81 l25 -3 3 -168 2 -168 88 3 87 3
3 168 2 168 -51 54 c-50 53 -54 55 -105 55 -46 0 -55 -4 -78 -31z"></path>
<path d="M1594 3198 c-44 -51 -47 -57 -34 -73 10 -12 38 -15 136 -15 l124 0 2
-167 3 -168 85 0 85 0 3 168 2 168 -51 54 -52 55 -142 0 c-134 0 -143 -1 -161
-22z"></path>
<path d="M2771 3166 l-51 -55 0 -112 0 -113 60 -58 c64 -62 101 -74 120 -39
11 21 14 388 4 415 -4 11 -19 16 -44 16 -32 0 -44 -7 -89 -54z"></path>
<path d="M2944 3206 c-3 -8 -4 -31 -2 -52 3 -37 5 -39 40 -42 70 -6 71 -60 2
-71 -33 -5 -39 -10 -42 -34 -6 -48 5 -52 141 -49 l125 3 4 70 3 70 -60 59 -61
60 -72 0 c-53 0 -74 -4 -78 -14z"></path>
<path d="M3290 2995 l0 -226 88 3 87 3 0 220 0 220 -87 3 -88 3 0 -226z"></path>
<path d="M3528 3190 c-16 -16 -28 -38 -28 -49 0 -14 8 -22 28 -27 15 -3 33 -7
39 -9 9 -3 13 -49 15 -167 l3 -163 94 0 94 0 -2 164 c-1 91 -7 173 -12 183 -5
10 -29 36 -52 58 -39 36 -46 39 -97 39 -47 0 -59 -4 -82 -29z"></path>
<path d="M3907 3163 l-57 -58 0 -112 0 -111 62 -56 c53 -49 67 -56 102 -56 33
0 49 7 80 36 44 40 56 35 56 -28 0 -59 -18 -69 -123 -67 -74 1 -93 -1 -101
-14 -8 -13 -4 -23 19 -47 l29 -30 125 0 125 0 58 57 58 57 0 186 0 186 -58 57
-58 58 -80 -3 -79 -3 0 -44 c0 -43 1 -44 40 -55 l40 -12 3 -99 c2 -55 0 -110
-3 -121 -4 -20 -8 -21 -47 -12 -24 5 -47 13 -51 17 -5 5 -10 76 -11 157 -1 82
-5 155 -9 162 -5 6 -21 12 -36 12 -21 0 -43 -15 -84 -57z"></path>
<path d="M4467 3162 l-57 -58 0 -108 0 -108 63 -59 c66 -62 89 -70 120 -42 18
17 19 17 32 0 10 -14 28 -17 102 -17 89 0 90 0 126 35 43 42 45 50 16 66 -20
10 -210 9 -249 -2 -12 -3 -16 8 -18 50 l-3 53 43 -5 c24 -4 90 -7 148 -9 l105
-3 3 76 3 75 -58 57 -58 57 -73 0 c-40 0 -82 -5 -92 -10 -13 -7 -21 -7 -25 0
-3 5 -21 10 -38 10 -26 0 -44 -11 -90 -58z m257 -62 c5 -5 6 -19 2 -33 -5 -21
-13 -25 -57 -30 -29 -4 -56 -4 -60 -1 -11 6 -12 68 -1 78 9 10 104 -2 116 -14z"></path>
<path d="M4980 3218 c-1 -2 -1 -102 -2 -223 l0 -220 97 0 96 0 0 212 c0 117
-2 217 -6 223 -5 8 -184 16 -185 8z"></path>
<path d="M5231 3184 c-18 -20 -30 -41 -28 -47 2 -7 19 -17 38 -23 31 -11 34
-15 39 -60 l5 -49 85 0 85 0 3 60 c2 58 1 61 -42 108 -42 45 -45 47 -99 47
-51 0 -57 -3 -86 -36z"></path>
<path d="M1558 2994 c-59 -72 -51 -137 22 -201 20 -18 37 -22 92 -23 62 0 68
2 92 31 40 47 31 74 -29 81 -59 6 -39 78 22 78 16 0 24 7 29 25 11 44 -9 55
-105 55 l-86 0 -37 -46z"></path>
<path d="M699 2963 c-1 -4 -1 -11 0 -15 0 -4 -4 -19 -9 -33 -7 -19 -17 -25
-38 -25 -16 0 -43 -5 -61 -11 -25 -9 -31 -16 -31 -41 0 -61 12 -68 108 -68
l88 0 63 58 c59 54 62 59 59 97 l-3 40 -87 3 c-49 1 -89 -1 -89 -5z"></path>
<path d="M2944 2866 c-3 -7 -4 -31 -2 -52 l3 -39 89 -3 c89 -3 89 -3 123 30
21 20 33 40 31 53 -3 19 -11 20 -121 23 -94 2 -118 0 -123 -12z"></path>
</g>
</svg>